<svg width="200" height="40" viewBox="0 0 200 40" fill="none" xmlns="http://www.w3.org/2000/svg">
<path d="M17.6 4.41358C20.9557 4.41621 24.2208 5.50263 26.9092 7.51106C29.5975 9.51949 31.5652 12.3425 32.5193 15.5597L38 20.0136L32.5192 24.4674C31.6907 27.2368 30.1085 29.7212 27.9492 31.643C25.79 33.5648 23.1389 34.8483 20.2921 35.3501C17.4454 35.8518 14.5152 35.5521 11.829 34.4843C9.14286 33.4166 6.80652 31.6228 5.08114 29.3036C3.35575 26.9844 2.30929 24.2311 2.05869 21.3514C1.80809 18.4717 2.36324 15.579 3.66208 12.9966C4.96093 10.4142 6.95231 8.2439 9.41366 6.72819C11.875 5.21248 14.7094 4.41109 17.6 4.41358V4.41358Z" stroke="#F0CF69" stroke-width="2" stroke-miterlimit="10"/>
<path d="M9.4149 21.0794C8.9845 20.543 8.66664 19.9254 8.48031 19.2634C8.29399 18.6014 8.24302 17.9086 8.33045 17.2265C8.41788 16.5444 8.64192 15.8869 8.98919 15.2933C9.33645 14.6997 9.7998 14.1822 10.3516 13.7717C10.9033 13.3612 11.5322 13.0662 12.2005 12.9042C12.8689 12.7422 13.563 12.7166 14.2415 12.829C14.92 12.9413 15.5689 13.1893 16.1493 13.558C16.7298 13.9267 17.23 14.4087 17.62 14.9751C18.0101 14.4087 18.5103 13.9267 19.0908 13.558C19.6713 13.1893 20.3201 12.9413 20.9986 12.829C21.6771 12.7166 22.3712 12.7422 23.0396 12.9042C23.7079 13.0662 24.3368 13.3612 24.8885 13.7717C25.4403 14.1822 25.9037 14.6997 26.2509 15.2933C26.5982 15.8869 26.8222 16.5444 26.9097 17.2265C26.9971 17.9086 26.9461 18.6014 26.7598 19.2634C26.5735 19.9254 26.2556 20.543 25.8252 21.0794L25.8177 21.0894C25.6281 21.3245 17.62 29.5613 17.62 29.5613C17.62 29.5613 9.6119 21.3245 9.42239 21.0895L9.4149 21.0794Z" stroke="#F0CF69" stroke-width="2" stroke-miterlimit="10"/>
<path d="M56.7795 16.04C56.8115 15.944 56.8275 15.816 56.8275 15.656C56.8275 15.4 56.7555 15.192 56.6115 15.032C56.4835 14.872 56.2755 14.696 55.9875 14.504C55.7475 14.328 55.5715 14.176 55.4595 14.048C55.3635 13.92 55.3395 13.768 55.3875 13.592C55.4355 13.368 55.5555 13.216 55.7475 13.136C55.9395 13.056 56.2435 13.016 56.6595 13.016H63.4755C63.8115 13.016 64.0675 13.072 64.2435 13.184C64.4355 13.296 64.5315 13.44 64.5315 13.616C64.5315 13.696 64.5075 13.8 64.4595 13.928C64.4115 14.04 64.3395 14.144 64.2435 14.24C64.1635 14.32 64.0835 14.384 64.0035 14.432C63.9395 14.464 63.8915 14.496 63.8595 14.528C63.6035 14.672 63.3955 14.832 63.2355 15.008C63.0755 15.184 62.9395 15.456 62.8275 15.824L60.4755 24.128C59.9955 25.824 59.1795 27.088 58.0275 27.92C56.8755 28.736 55.3795 29.144 53.5395 29.144C52.3075 29.144 51.2595 28.968 50.3955 28.616C49.5475 28.248 48.9075 27.76 48.4755 27.152C48.0435 26.544 47.8275 25.88 47.8275 25.16C47.8275 24.808 47.8755 24.464 47.9715 24.128C48.1795 23.408 48.5315 22.864 49.0275 22.496C49.5395 22.128 50.1075 21.944 50.7315 21.944C51.4515 21.944 52.0035 22.16 52.3875 22.592C52.7715 23.024 52.9635 23.576 52.9635 24.248C52.9635 24.584 52.9155 24.92 52.8195 25.256C52.6275 25.928 52.2675 26.424 51.7395 26.744C51.9955 26.904 52.2915 26.984 52.6275 26.984C52.9635 26.984 53.2595 26.816 53.5155 26.48C53.7715 26.144 53.9875 25.672 54.1635 25.064L56.7795 16.04ZM71.331 16.304C73.507 16.304 75.107 16.744 76.131 17.624C77.171 18.504 77.691 19.656 77.691 21.08C77.691 21.56 77.627 22.096 77.499 22.688C77.195 24 76.627 25.152 75.795 26.144C74.963 27.12 73.939 27.88 72.723 28.424C71.523 28.952 70.219 29.216 68.811 29.216C66.587 29.216 64.939 28.776 63.867 27.896C62.811 27 62.283 25.816 62.283 24.344C62.283 23.848 62.347 23.296 62.475 22.688C62.779 21.44 63.355 20.336 64.203 19.376C65.067 18.4 66.115 17.648 67.347 17.12C68.595 16.576 69.923 16.304 71.331 16.304ZM71.259 18.44C70.923 18.44 70.563 18.744 70.179 19.352C69.811 19.944 69.371 21.072 68.859 22.736C68.347 24.4 68.091 25.568 68.091 26.24C68.091 26.592 68.147 26.832 68.259 26.96C68.371 27.072 68.523 27.128 68.715 27.128C69.051 27.16 69.395 26.872 69.747 26.264C70.115 25.656 70.571 24.472 71.115 22.712C71.611 21.16 71.859 20.032 71.859 19.328C71.859 18.992 71.803 18.76 71.691 18.632C71.595 18.504 71.451 18.44 71.259 18.44ZM84.105 16.304C85.033 16.304 85.713 16.48 86.145 16.832C86.577 17.184 86.793 17.664 86.793 18.272C86.793 18.64 86.737 18.992 86.625 19.328L84.417 26.504C84.369 26.696 84.345 26.864 84.345 27.008C84.345 27.216 84.385 27.384 84.465 27.512C84.545 27.624 84.657 27.736 84.801 27.848C84.913 27.96 84.993 28.056 85.041 28.136C85.089 28.2 85.097 28.288 85.065 28.4C84.985 28.608 84.825 28.76 84.585 28.856C84.345 28.952 83.977 29 83.481 29H78.009C77.593 29 77.289 28.936 77.097 28.808C76.905 28.664 76.841 28.48 76.905 28.256C76.969 28.064 77.137 27.896 77.409 27.752C77.649 27.624 77.849 27.472 78.009 27.296C78.169 27.12 78.305 26.84 78.417 26.456L80.505 19.52C80.553 19.376 80.577 19.256 80.577 19.16C80.577 18.984 80.537 18.848 80.457 18.752C80.377 18.64 80.257 18.528 80.097 18.416C79.937 18.288 79.825 18.176 79.761 18.08C79.697 17.984 79.689 17.856 79.737 17.696C79.833 17.328 80.337 17.008 81.249 16.736C82.161 16.448 83.113 16.304 84.105 16.304ZM85.713 11C86.337 11 86.857 11.208 87.273 11.624C87.689 12.024 87.897 12.52 87.897 13.112C87.897 13.528 87.785 13.936 87.561 14.336C87.353 14.736 87.049 15.064 86.649 15.32C86.265 15.56 85.833 15.68 85.353 15.68C84.745 15.68 84.233 15.48 83.817 15.08C83.417 14.664 83.209 14.152 83.193 13.544C83.193 13.144 83.297 12.752 83.505 12.368C83.713 11.968 84.009 11.64 84.393 11.384C84.777 11.128 85.217 11 85.713 11ZM101.438 25.688C101.406 25.752 101.39 25.848 101.39 25.976C101.39 26.088 101.414 26.176 101.462 26.24C101.526 26.304 101.606 26.336 101.702 26.336C101.894 26.336 102.054 26.256 102.182 26.096C102.326 25.92 102.422 25.832 102.47 25.832C102.55 25.832 102.614 25.888 102.662 26C102.71 26.096 102.734 26.216 102.734 26.36C102.75 26.824 102.598 27.28 102.278 27.728C101.958 28.16 101.486 28.52 100.862 28.808C100.254 29.08 99.518 29.216 98.654 29.216C97.598 29.216 96.758 28.976 96.134 28.496C95.51 28 95.19 27.344 95.174 26.528C95.174 25.936 95.318 25.272 95.606 24.536L96.926 21.08C97.006 20.872 97.046 20.704 97.046 20.576C97.046 20.368 96.974 20.208 96.83 20.096C96.702 19.968 96.542 19.904 96.35 19.904C95.998 19.904 95.662 20.072 95.342 20.408C95.022 20.728 94.79 21.128 94.646 21.608L93.158 26.504C93.094 26.68 93.062 26.848 93.062 27.008C93.062 27.2 93.102 27.36 93.182 27.488C93.262 27.6 93.374 27.72 93.518 27.848C93.63 27.944 93.71 28.032 93.758 28.112C93.806 28.192 93.814 28.288 93.782 28.4C93.718 28.608 93.566 28.76 93.326 28.856C93.086 28.952 92.71 29 92.198 29H86.726C86.31 29 86.014 28.936 85.838 28.808C85.646 28.664 85.574 28.48 85.622 28.256C85.686 28.064 85.854 27.896 86.126 27.752C86.366 27.624 86.566 27.472 86.726 27.296C86.886 27.12 87.022 26.84 87.134 26.456L89.27 19.52C89.302 19.44 89.318 19.328 89.318 19.184C89.318 19.008 89.278 18.872 89.198 18.776C89.134 18.68 89.022 18.56 88.862 18.416C88.702 18.288 88.59 18.176 88.526 18.08C88.462 17.984 88.454 17.856 88.502 17.696C88.598 17.328 89.102 17.008 90.014 16.736C90.926 16.448 91.878 16.304 92.87 16.304C93.67 16.304 94.302 16.528 94.766 16.976C95.23 17.408 95.438 18.016 95.39 18.8C96.046 17.856 96.742 17.208 97.478 16.856C98.214 16.488 99.014 16.304 99.878 16.304C100.854 16.304 101.638 16.6 102.23 17.192C102.838 17.784 103.142 18.552 103.142 19.496C103.142 19.992 103.062 20.48 102.902 20.96L101.438 25.688ZM106.618 24.152C107.258 24.152 107.794 24.368 108.226 24.8C108.674 25.232 108.898 25.76 108.898 26.384C108.898 26.816 108.778 27.24 108.538 27.656C108.314 28.072 107.994 28.416 107.578 28.688C107.178 28.944 106.722 29.072 106.21 29.072C105.586 29.072 105.058 28.856 104.626 28.424C104.194 27.992 103.97 27.464 103.954 26.84C103.954 26.408 104.066 25.984 104.29 25.568C104.514 25.152 104.826 24.816 105.226 24.56C105.642 24.288 106.106 24.152 106.618 24.152Z" fill="white"/>
<path d="M122.383 13.016C124.783 13.016 126.591 13.48 127.807 14.408C129.023 15.32 129.631 16.664 129.631 18.44C129.631 19.32 129.471 20.336 129.151 21.488C128.623 23.344 127.911 24.816 127.015 25.904C126.119 26.992 124.935 27.784 123.463 28.28C122.007 28.776 120.135 29.016 117.847 29L111.319 28.976C110.983 28.976 110.727 28.92 110.551 28.808C110.359 28.696 110.263 28.544 110.263 28.352C110.263 28.256 110.287 28.152 110.335 28.04C110.383 27.896 110.455 27.792 110.551 27.728C110.631 27.664 110.759 27.576 110.935 27.464C111.191 27.32 111.391 27.16 111.535 26.984C111.695 26.808 111.831 26.528 111.943 26.144L114.871 15.824C114.935 15.616 114.967 15.416 114.967 15.224C114.967 15.048 114.935 14.904 114.871 14.792C114.823 14.664 114.751 14.52 114.655 14.36C114.511 14.152 114.439 13.984 114.439 13.856C114.439 13.808 114.455 13.72 114.487 13.592C114.551 13.384 114.687 13.24 114.895 13.16C115.119 13.064 115.455 13.016 115.903 13.016H122.383ZM123.007 20.96C123.423 19.456 123.631 18.272 123.631 17.408C123.631 16.56 123.455 15.976 123.103 15.656C122.751 15.336 122.247 15.176 121.591 15.176H121.063L117.823 26.84H118.399C119.135 26.84 119.751 26.688 120.247 26.384C120.759 26.064 121.231 25.488 121.663 24.656C122.095 23.808 122.543 22.576 123.007 20.96ZM137.994 16.304C139.834 16.304 141.306 16.648 142.41 17.336C143.514 18.008 144.066 19.04 144.066 20.432C144.066 20.96 143.97 21.56 143.778 22.232L142.794 25.544C142.778 25.608 142.77 25.688 142.77 25.784C142.77 26.04 142.874 26.168 143.082 26.168C143.274 26.168 143.434 26.088 143.562 25.928C143.706 25.752 143.802 25.664 143.85 25.664C143.93 25.664 143.994 25.72 144.042 25.832C144.106 25.944 144.138 26.072 144.138 26.216C144.154 26.648 143.986 27.088 143.634 27.536C143.298 27.984 142.842 28.352 142.266 28.64C141.69 28.928 141.058 29.072 140.37 29.072C139.538 29.072 138.826 28.92 138.234 28.616C137.642 28.312 137.234 27.864 137.01 27.272C136.53 27.848 135.962 28.296 135.306 28.616C134.65 28.92 133.946 29.072 133.194 29.072C132.346 29.072 131.634 28.912 131.058 28.592C130.482 28.256 130.05 27.832 129.762 27.32C129.49 26.792 129.354 26.24 129.354 25.664C129.354 25.408 129.378 25.16 129.426 24.92C129.682 23.816 130.234 22.984 131.082 22.424C131.946 21.864 132.97 21.584 134.154 21.584C135.482 21.584 136.786 21.792 138.066 22.208L138.666 20.624C138.874 19.952 138.978 19.432 138.978 19.064C138.962 18.68 138.834 18.392 138.594 18.2C138.354 18.008 137.986 17.912 137.49 17.912C137.586 18.168 137.634 18.432 137.634 18.704C137.634 19.296 137.41 19.808 136.962 20.24C136.514 20.672 135.874 20.888 135.042 20.888C134.258 20.888 133.642 20.72 133.194 20.384C132.762 20.032 132.546 19.6 132.546 19.088C132.546 18.288 132.994 17.624 133.89 17.096C134.786 16.568 136.154 16.304 137.994 16.304ZM136.65 23.576C136.202 23.576 135.834 23.752 135.546 24.104C135.274 24.44 135.138 24.808 135.138 25.208C135.138 25.464 135.194 25.672 135.306 25.832C135.434 25.992 135.61 26.072 135.834 26.072C136.042 26.072 136.266 25.992 136.506 25.832C136.762 25.656 136.946 25.4 137.058 25.064L137.562 23.648C137.29 23.6 136.986 23.576 136.65 23.576ZM155.857 16.616C156.161 16.616 156.393 16.68 156.553 16.808C156.729 16.936 156.817 17.112 156.817 17.336C156.817 17.4 156.801 17.512 156.769 17.672C156.561 18.376 156.081 18.728 155.329 18.728H153.937L152.137 24.656C152.057 24.896 152.017 25.144 152.017 25.4C152.017 25.688 152.097 25.888 152.257 26C152.417 26.112 152.641 26.168 152.929 26.168C153.185 26.168 153.505 26.136 153.889 26.072C154.081 26.024 154.249 26 154.393 26C154.505 26 154.585 26.04 154.633 26.12C154.697 26.184 154.729 26.272 154.729 26.384C154.745 26.704 154.505 27.096 154.009 27.56C153.529 28.008 152.873 28.4 152.041 28.736C151.209 29.056 150.289 29.216 149.281 29.216C148.193 29.216 147.321 28.968 146.665 28.472C146.009 27.976 145.681 27.296 145.681 26.432C145.681 26.032 145.745 25.648 145.873 25.28L147.409 20.528C147.489 20.256 147.529 20.04 147.529 19.88C147.529 19.56 147.449 19.288 147.289 19.064C147.145 18.84 146.937 18.608 146.665 18.368C146.425 18.144 146.257 17.96 146.161 17.816C146.065 17.656 146.041 17.472 146.089 17.264C146.153 17.056 146.289 16.896 146.497 16.784C146.705 16.672 147.033 16.616 147.481 16.616H148.825L150.337 15.104C150.865 14.576 151.345 14.208 151.777 14C152.225 13.792 152.801 13.688 153.505 13.688C154.513 13.688 155.017 14.072 155.017 14.84C155.017 15.08 154.985 15.304 154.921 15.512L154.585 16.616H155.857ZM161.753 16.304C162.681 16.304 163.361 16.48 163.793 16.832C164.225 17.184 164.441 17.664 164.441 18.272C164.441 18.64 164.385 18.992 164.273 19.328L162.065 26.504C162.017 26.696 161.993 26.864 161.993 27.008C161.993 27.216 162.033 27.384 162.113 27.512C162.193 27.624 162.305 27.736 162.449 27.848C162.561 27.96 162.641 28.056 162.689 28.136C162.737 28.2 162.745 28.288 162.713 28.4C162.633 28.608 162.473 28.76 162.233 28.856C161.993 28.952 161.625 29 161.129 29H155.657C155.241 29 154.937 28.936 154.745 28.808C154.553 28.664 154.489 28.48 154.553 28.256C154.617 28.064 154.785 27.896 155.057 27.752C155.297 27.624 155.497 27.472 155.657 27.296C155.817 27.12 155.953 26.84 156.065 26.456L158.153 19.52C158.201 19.376 158.225 19.256 158.225 19.16C158.225 18.984 158.185 18.848 158.105 18.752C158.025 18.64 157.905 18.528 157.745 18.416C157.585 18.288 157.473 18.176 157.409 18.08C157.345 17.984 157.337 17.856 157.385 17.696C157.481 17.328 157.985 17.008 158.897 16.736C159.809 16.448 160.761 16.304 161.753 16.304ZM163.361 11C163.985 11 164.505 11.208 164.921 11.624C165.337 12.024 165.545 12.52 165.545 13.112C165.545 13.528 165.433 13.936 165.209 14.336C165.001 14.736 164.697 15.064 164.297 15.32C163.913 15.56 163.481 15.68 163.001 15.68C162.393 15.68 161.881 15.48 161.465 15.08C161.065 14.664 160.857 14.152 160.841 13.544C160.841 13.144 160.945 12.752 161.153 12.368C161.361 11.968 161.657 11.64 162.041 11.384C162.425 11.128 162.865 11 163.361 11ZM179.086 25.688C179.054 25.752 179.038 25.848 179.038 25.976C179.038 26.088 179.062 26.176 179.11 26.24C179.174 26.304 179.254 26.336 179.35 26.336C179.542 26.336 179.702 26.256 179.83 26.096C179.974 25.92 180.07 25.832 180.118 25.832C180.198 25.832 180.262 25.888 180.31 26C180.358 26.096 180.382 26.216 180.382 26.36C180.398 26.824 180.246 27.28 179.926 27.728C179.606 28.16 179.134 28.52 178.51 28.808C177.902 29.08 177.166 29.216 176.302 29.216C175.246 29.216 174.406 28.976 173.782 28.496C173.158 28 172.838 27.344 172.822 26.528C172.822 25.936 172.966 25.272 173.254 24.536L174.574 21.08C174.654 20.872 174.694 20.704 174.694 20.576C174.694 20.368 174.622 20.208 174.478 20.096C174.35 19.968 174.19 19.904 173.998 19.904C173.646 19.904 173.31 20.072 172.99 20.408C172.67 20.728 172.438 21.128 172.294 21.608L170.806 26.504C170.742 26.68 170.71 26.848 170.71 27.008C170.71 27.2 170.75 27.36 170.83 27.488C170.91 27.6 171.022 27.72 171.166 27.848C171.278 27.944 171.358 28.032 171.406 28.112C171.454 28.192 171.462 28.288 171.43 28.4C171.366 28.608 171.214 28.76 170.974 28.856C170.734 28.952 170.358 29 169.846 29H164.374C163.958 29 163.662 28.936 163.486 28.808C163.294 28.664 163.222 28.48 163.27 28.256C163.334 28.064 163.502 27.896 163.774 27.752C164.014 27.624 164.214 27.472 164.374 27.296C164.534 27.12 164.67 26.84 164.782 26.456L166.918 19.52C166.95 19.44 166.966 19.328 166.966 19.184C166.966 19.008 166.926 18.872 166.846 18.776C166.782 18.68 166.67 18.56 166.51 18.416C166.35 18.288 166.238 18.176 166.174 18.08C166.11 17.984 166.102 17.856 166.15 17.696C166.246 17.328 166.75 17.008 167.662 16.736C168.574 16.448 169.526 16.304 170.518 16.304C171.318 16.304 171.95 16.528 172.414 16.976C172.878 17.408 173.086 18.016 173.038 18.8C173.694 17.856 174.39 17.208 175.126 16.856C175.862 16.488 176.662 16.304 177.526 16.304C178.502 16.304 179.286 16.6 179.878 17.192C180.486 17.784 180.79 18.552 180.79 19.496C180.79 19.992 180.71 20.48 180.55 20.96L179.086 25.688ZM195.954 12.392C196.466 12.392 196.962 12.504 197.442 12.728C197.938 12.936 198.338 13.232 198.642 13.616C198.962 13.984 199.122 14.384 199.122 14.816C199.122 15.76 198.482 16.232 197.202 16.232C196.834 16.232 196.546 16.208 196.338 16.16C196.146 16.096 195.914 16 195.642 15.872C195.594 15.984 195.57 16.144 195.57 16.352C195.57 16.608 195.61 16.912 195.69 17.264C195.786 17.616 195.898 17.944 196.026 18.248C196.362 18.744 196.53 19.336 196.53 20.024C196.53 20.328 196.49 20.696 196.41 21.128C196.218 21.96 195.794 22.72 195.138 23.408C194.498 24.096 193.666 24.64 192.642 25.04C191.634 25.424 190.522 25.616 189.306 25.616C188.378 25.616 187.506 25.552 186.69 25.424C186.45 25.632 186.33 25.888 186.33 26.192C186.33 26.4 186.426 26.576 186.618 26.72C186.81 26.848 187.13 26.912 187.578 26.912H191.178C192.41 26.912 193.37 27.128 194.058 27.56C194.746 27.976 195.09 28.576 195.09 29.36C195.09 29.648 195.042 29.944 194.946 30.248C194.754 30.872 194.314 31.448 193.626 31.976C192.954 32.52 192.002 32.96 190.77 33.296C189.538 33.632 188.042 33.8 186.282 33.8C184.714 33.8 183.386 33.664 182.298 33.392C181.21 33.12 180.402 32.744 179.874 32.264C179.33 31.8 179.058 31.28 179.058 30.704C179.058 30.576 179.09 30.384 179.154 30.128C179.298 29.664 179.626 29.288 180.138 29C180.634 28.696 181.458 28.496 182.61 28.4C182.226 28.032 182.034 27.592 182.034 27.08C182.034 26.904 182.058 26.72 182.106 26.528C182.362 25.696 183.114 25.08 184.362 24.68C183.162 24.024 182.562 23.064 182.562 21.8C182.562 21.448 182.61 21.08 182.706 20.696C182.898 19.864 183.322 19.112 183.978 18.44C184.634 17.752 185.474 17.208 186.498 16.808C187.522 16.408 188.642 16.208 189.858 16.208C191.762 16.208 193.258 16.456 194.346 16.952C194.106 16.584 193.914 16.192 193.77 15.776C193.642 15.344 193.578 14.952 193.578 14.6C193.578 13.992 193.77 13.472 194.154 13.04C194.554 12.608 195.154 12.392 195.954 12.392ZM190.746 20.912C191.002 20.096 191.13 19.472 191.13 19.04C191.13 18.496 190.898 18.224 190.434 18.224C190.034 18.224 189.682 18.424 189.378 18.824C189.09 19.208 188.794 19.904 188.49 20.912C188.234 21.744 188.106 22.376 188.106 22.808C188.106 23.336 188.33 23.6 188.778 23.6C189.178 23.6 189.53 23.4 189.834 23C190.138 22.6 190.442 21.904 190.746 20.912ZM185.97 29.336C185.522 29.336 185.114 29.312 184.746 29.264C184.554 29.504 184.458 29.824 184.458 30.224C184.474 30.624 184.634 30.912 184.938 31.088C185.258 31.264 185.746 31.352 186.402 31.352C187.202 31.352 187.85 31.232 188.346 30.992C188.858 30.752 189.114 30.408 189.114 29.96C189.114 29.768 189.042 29.616 188.898 29.504C188.754 29.392 188.546 29.336 188.274 29.336H185.97Z" fill="#F0CF69"/>
</svg>
