<svg width="56" height="56" viewBox="0 0 56 56" fill="none" xmlns="http://www.w3.org/2000/svg">
<path d="M50.2763 9.06783L28.8388 0.167221C28.3018 -0.0556855 27.6981 -0.0557949 27.1612 0.167221L5.7237 9.06783C4.90722 9.40689 4.375 10.204 4.375 11.0881V21.908C4.375 36.8063 13.3797 50.2077 27.1733 55.8378C27.7032 56.054 28.2967 56.054 28.8267 55.8378C42.62 50.2078 51.625 36.8064 51.625 21.908V11.0881C51.625 10.204 51.0929 9.40689 50.2763 9.06783ZM47.25 21.908C47.25 34.5731 39.8125 46.2321 28 51.4364C16.5032 46.3712 8.75 34.9163 8.75 21.908V12.5485L28 4.556L47.25 12.5485V21.908ZM25.5822 29.2814L34.9845 19.8792C35.8387 19.025 37.2237 19.0249 38.078 19.8792C38.9324 20.7335 38.9322 22.1186 38.0779 22.9728L27.1289 33.9218C26.2745 34.7762 24.8895 34.7759 24.0354 33.9218L17.922 27.8084C17.0676 26.954 17.0676 25.569 17.922 24.7148C18.7763 23.8606 20.1613 23.8605 21.0155 24.7148L25.5822 29.2814Z" fill="#F0CF69"/>
</svg>
