<svg width="56" height="56" viewBox="0 0 56 56" fill="none" xmlns="http://www.w3.org/2000/svg">
<g clip-path="url(#clip0_108_4976)">
<path d="M47.7991 8.20094C42.5105 2.91255 35.4791 0 28 0C20.5209 0 13.4895 2.91255 8.20094 8.20094C2.91255 13.4895 0 20.5209 0 28C0 35.4791 2.91255 42.5105 8.20094 47.7991C13.4895 53.0875 20.5209 56 28 56C35.4791 56 42.5105 53.0875 47.7991 47.7991C53.0875 42.5105 56 35.4791 56 28C56 20.5209 53.0875 13.4895 47.7991 8.20094V8.20094ZM28 52.7188C14.37 52.7188 3.28125 41.63 3.28125 28C3.28125 14.37 14.37 3.28125 28 3.28125C41.63 3.28125 52.7188 14.37 52.7188 28C52.7188 41.63 41.63 52.7188 28 52.7188V52.7188Z" fill="#F0CF69"/>
<path d="M43.2344 17.5263C41.4208 15.7127 39.0095 14.7139 36.4446 14.7139C33.8798 14.7139 31.4684 15.7127 29.6547 17.5263L28 19.1811L26.3453 17.5263C24.5316 15.7127 22.1203 14.7139 19.5554 14.7139C16.9905 14.7139 14.5791 15.7127 12.7656 17.5263C10.9519 19.34 9.95312 21.7514 9.95312 24.3161C9.95312 26.881 10.9519 29.2924 12.7656 31.1059L26.84 45.1803C27.1603 45.5006 27.5802 45.6609 28 45.6609C28.4198 45.6609 28.8398 45.5007 29.16 45.1803L43.2344 31.1059C45.0481 29.2924 46.0469 26.8811 46.0469 24.3161C46.0469 21.7514 45.0481 19.34 43.2344 17.5263V17.5263ZM40.9142 28.7858L28 41.7L15.0858 28.7857C13.8918 27.5919 13.2344 26.0045 13.2344 24.3161C13.2344 22.6277 13.8918 21.0403 15.0858 19.8465C16.3181 18.6142 17.9367 17.9981 19.5554 17.9981C21.1741 17.9981 22.7928 18.6142 24.0251 19.8465L26.84 22.6614C27.4806 23.3021 28.5194 23.3021 29.1601 22.6614L31.975 19.8465C34.4395 17.3819 38.4497 17.3819 40.9143 19.8465C42.1082 21.0404 42.7656 22.6278 42.7656 24.3161C42.7656 26.0045 42.1082 27.5919 40.9142 28.7858Z" fill="#F0CF69"/>
</g>
<defs>
<clipPath id="clip0_108_4976">
<rect width="56" height="56" fill="white"/>
</clipPath>
</defs>
</svg>
