<svg width="56" height="56" viewBox="0 0 56 56" fill="none" xmlns="http://www.w3.org/2000/svg">
<g clip-path="url(#clip0_142_1739)">
<path d="M42.4007 50.7518C42.0977 50.2297 41.4287 50.0518 40.9059 50.3548L40.8638 50.3791C40.3414 50.6822 40.1637 51.3514 40.4666 51.8739C40.6695 52.2236 41.0365 52.4189 41.4136 52.4189C41.5998 52.4189 41.7888 52.3711 41.9615 52.2709L42.0036 52.2466C42.5259 51.9436 42.7037 51.2743 42.4007 50.7518Z" fill="#F0CF69"/>
<path d="M52.2482 14.0096C48.5096 7.53408 42.4731 2.90215 35.2506 0.966874C28.0283 -0.968407 20.4845 0.0248272 14.009 3.76337C7.53354 7.50192 2.90151 13.5385 0.966337 20.7609C-0.968835 27.9833 0.0242901 35.5272 3.76284 42.0026C7.11638 47.8112 12.4464 52.2257 18.7712 54.4326C21.7692 55.4787 24.899 56.0008 28.024 56.0008C31.4217 56.0008 34.8133 55.3832 38.0192 54.1511C38.583 53.9344 38.8643 53.3017 38.6476 52.7379C38.4308 52.1741 37.7979 51.8924 37.2343 52.1095C28.7009 55.3894 19.4629 53.8991 12.561 48.7185L13.5409 43.6035L14.013 43.4502C15.7973 42.8705 16.7773 40.9473 16.1978 39.1629L15.8513 38.0966C15.7711 37.8499 15.7716 37.589 15.8524 37.3425C16.1563 36.4159 16.0477 35.4021 15.5543 34.5607C15.0609 33.7195 14.2292 33.1297 13.272 32.9425L10.8034 32.4602L6.04035 28.8388C5.75499 28.6218 5.38148 28.5585 5.04045 28.6691L2.25182 29.575C2.19265 28.5776 2.19177 27.5805 2.24799 26.5887C2.35802 26.6912 2.42967 26.7609 2.47374 26.8066C2.52832 26.8975 2.59592 26.9808 2.6751 27.053C2.90282 27.2604 3.1091 27.3545 3.54223 27.3545C3.94024 27.3544 4.52945 27.2751 5.50234 27.1313C6.42503 26.9949 7.3429 26.8413 7.35198 26.8397C7.71981 26.7782 8.03076 26.5332 8.1771 26.1903C8.32345 25.8473 8.28484 25.4534 8.07473 25.1452L6.73368 23.1782L8.65453 21.8047C8.78249 21.7131 8.88924 21.5951 8.96745 21.4586L11.945 16.2606L13.1451 14.9745C14.3716 13.6601 14.7216 11.7369 14.0366 10.0749C13.6326 9.09453 12.9269 8.27837 12.0443 7.72833C13.0002 6.97681 14.0195 6.28294 15.1027 5.65764C19.0772 3.36295 23.4146 2.25094 27.7063 2.20839L25.7533 4.65828L18.5111 7.1972C18.217 7.30023 17.9807 7.52401 17.8619 7.81211L15.8394 12.7152C15.6958 13.0635 15.7414 13.461 15.9602 13.7677L18.9142 17.9056C18.4912 18.2915 18.0794 18.8537 17.5875 19.5518C17.3718 19.8579 17.1682 20.147 17.0274 20.3091C16.905 20.4502 16.7825 20.588 16.6611 20.7245C16.0257 21.4392 15.3688 22.1785 14.9021 23.1659C13.876 25.338 14.0832 27.8626 15.443 29.7546C16.7578 31.5839 18.9254 32.5138 21.2389 32.2417C21.6158 32.1975 21.9672 32.1105 22.3073 32.0263C23.2449 31.7943 23.542 31.7711 23.8428 32.0527C23.9891 32.1897 24.0026 32.2156 23.9996 32.6804C23.9975 32.9761 23.9952 33.3441 24.0972 33.7642C24.2605 34.4363 24.6826 34.9008 25.0216 35.274C25.1902 35.4594 25.3645 35.6512 25.4182 35.7799C25.7594 36.5974 25.6108 37.0501 25.2853 38.0421C25.2574 38.127 25.229 38.2136 25.2004 38.3025C24.706 39.8332 25.3952 41.3515 26.0034 42.6909C26.2009 43.1259 26.3874 43.5365 26.5096 43.8994C27.4929 46.8174 28.2301 47.4857 28.8217 47.7548C29.1316 47.8956 29.4523 47.9574 29.7763 47.9573C31.3529 47.9572 32.9981 46.4933 33.7539 45.5653C34.2286 44.9825 34.3455 44.399 34.4308 43.9728C34.4734 43.7608 34.5068 43.5935 34.5707 43.4841C34.6685 43.3168 34.7837 43.187 34.9295 43.0228C35.2227 42.6926 35.5877 42.2817 35.824 41.537C36.0036 40.9713 36.1341 40.8326 36.5663 40.3724C36.6415 40.2924 36.7217 40.2069 36.8078 40.1133C38.2645 38.5281 37.8894 37.3172 37.492 36.0351C37.1577 34.9564 37.7425 34.2664 39.1565 32.9496C39.7694 32.3788 40.4031 31.7886 40.893 31.0794C41.1074 30.769 41.7596 29.8248 41.356 28.8889C40.9604 27.9712 39.9549 27.817 39.1471 27.6932C38.828 27.6442 38.3459 27.5703 38.1925 27.47C37.5157 27.0275 37.1018 26.1042 36.7013 25.2112C36.6216 25.0334 36.543 24.858 36.4632 24.6877C36.321 24.3838 36.179 24.0162 36.0286 23.6271C35.6307 22.5972 35.1797 21.4298 34.412 20.6161C33.722 19.8849 32.4212 19.5327 31.2735 19.2219C30.8875 19.1174 30.5232 19.0188 30.2829 18.9301C30.0815 18.8557 29.863 18.8422 29.6545 18.8912C29.0959 19.0222 28.7475 19.1664 28.4887 19.3738C28.4203 19.4286 28.2179 19.6085 28.0993 19.8977C27.6989 19.7055 27.1483 19.3386 26.8095 19.1127C26.8025 19.108 26.7954 19.1033 26.7884 19.0986C26.9025 18.6417 26.7992 18.2749 26.6909 18.0459C26.0799 16.7535 24.0518 16.8547 23.6517 16.8887C23.4244 16.9077 23.1369 16.9179 22.8327 16.9286C22.3549 16.9456 21.8269 16.9646 21.3044 17.0232L21.3313 16.9482C21.7279 15.8432 22.7832 15.1007 23.9572 15.1007H24.579C25.1828 15.1007 25.6726 14.611 25.6726 14.0071C25.6726 13.4032 25.1828 12.9135 24.579 12.9135H23.9572C22.2142 12.9135 20.6181 13.8308 19.7235 15.2747L18.0922 12.9895L19.6971 9.09912L26.774 6.61806C26.9681 6.55003 27.1391 6.42862 27.2674 6.26773L30.4134 2.32159C38.4518 3.08623 46.0183 7.59314 50.3542 15.103C51.5091 17.1034 52.3634 19.2093 52.9314 21.3632L52.4677 21.7767C51.8626 22.3167 51.508 23.0911 51.4944 23.9017C51.4943 23.9106 51.4941 23.9193 51.4938 23.9281L50.7384 21.8508C50.6259 21.5409 50.4601 21.2566 50.2459 21.006L48.8985 19.4285C48.3761 18.817 47.6155 18.4664 46.8115 18.4664H45.1623C44.5768 18.4664 44.0417 18.7871 43.7655 19.303C43.4894 19.8191 43.5196 20.4423 43.8443 20.9292L44.0112 21.1798C42.9454 22.0963 41.7128 22.8296 40.4003 23.3242L38.1395 18.9937V18.0276C38.1395 17.7288 38.0172 17.4428 37.801 17.2366L35.7652 15.2931C35.6529 15.186 35.519 15.1039 35.3725 15.0524L33.54 14.4084C32.9698 14.2078 32.3457 14.5078 32.1455 15.0776C31.9453 15.6475 32.2449 16.2717 32.8147 16.472L34.4251 17.038L35.9522 18.4956V19.2621C35.9522 19.4383 35.9949 19.612 36.0765 19.7683L38.9068 25.1897C39.1613 25.6775 39.739 25.9004 40.2546 25.7097L41.0787 25.4058C42.9934 24.6997 44.768 23.5639 46.2108 22.1212C46.5794 21.7525 46.6367 21.1751 46.3475 20.7412L46.2893 20.6538H46.8115C46.9748 20.6538 47.1294 20.725 47.2355 20.8493L48.5829 22.4268C48.6263 22.4777 48.6599 22.5352 48.6828 22.5983L50.1698 26.6871C50.2975 27.0384 50.5959 27.3 50.9606 27.3809C51.0393 27.3983 51.1186 27.4069 51.1975 27.4069C51.4844 27.4069 51.7636 27.2939 51.9707 27.0865L52.6785 26.3787C53.1267 25.9304 53.4353 25.3632 53.5827 24.7344C54.6773 33.5068 51.2376 42.5814 43.967 48.288C43.4918 48.6608 43.4089 49.3482 43.782 49.8235C44.1548 50.2987 44.8421 50.3816 45.3175 50.0085C50.5666 45.8887 54.1727 39.9961 55.4715 33.4162C56.7825 26.7729 55.6379 19.8807 52.2482 14.0096ZM5.17192 30.9263L9.68178 34.3553C9.8151 34.4567 9.96976 34.5261 10.134 34.5581L12.8522 35.0892C13.1992 35.1571 13.4886 35.3622 13.6674 35.6672C13.8462 35.972 13.8839 36.3247 13.7738 36.6606C13.5474 37.3511 13.5463 38.0814 13.7709 38.7723L14.1174 39.8385C14.3244 40.4757 13.9742 41.1627 13.3371 41.3698L12.2502 41.7229C11.871 41.8461 11.5891 42.1659 11.5141 42.5573L10.6394 47.1236C8.71621 45.3634 7.02768 43.2831 5.6571 40.9091C3.98498 38.0132 2.94023 34.9243 2.47976 31.801L5.17192 30.9263ZM11.546 13.4822L10.2594 14.8607C10.202 14.9222 10.1518 14.9903 10.1099 15.0633L7.18824 20.1642L4.59157 22.0209C4.10792 22.3667 3.98913 23.0354 4.32404 23.5267L5.29518 24.9512C4.7354 25.0345 4.23304 25.1032 3.89901 25.1396C3.83481 25.078 3.76765 25.0156 3.6982 24.9511C3.43821 24.7096 3.07695 24.387 2.53838 23.9157C3.42662 18.4182 6.07568 13.2391 10.242 9.28572C11.0398 9.53695 11.6945 10.1321 12.0143 10.9083C12.3742 11.7813 12.1902 12.7917 11.546 13.4822ZM20.4633 19.4588C20.9511 19.1843 22.0834 19.1441 22.91 19.1148C23.2413 19.1031 23.5544 19.0919 23.8339 19.0685C23.9815 19.0562 24.1453 19.0585 24.2999 19.0705C24.2308 19.2477 24.2084 19.4422 24.2384 19.6351C24.291 19.9745 24.5002 20.2693 24.803 20.4312C25.0082 20.5411 25.2937 20.7315 25.5961 20.9331C26.4508 21.5029 27.4198 22.1488 28.33 22.2067C29.1577 22.2604 29.6183 21.7887 29.8156 21.5878C29.8314 21.5718 29.8463 21.5558 29.862 21.5413C29.9731 21.4507 30.0773 21.3293 30.1547 21.1829C30.3296 21.2329 30.5133 21.2826 30.7017 21.3337C31.3493 21.509 32.5547 21.8354 32.821 22.1176C33.2941 22.6191 33.6628 23.5736 33.9882 24.4157C34.1526 24.8412 34.3079 25.2429 34.4821 25.6153C34.5569 25.7751 34.6305 25.9397 34.7054 26.1064C35.21 27.2321 35.782 28.508 36.9956 29.3012C37.5458 29.661 38.2203 29.7643 38.8156 29.8557C38.8875 29.8667 38.97 29.8794 39.0538 29.8932C38.7005 30.386 38.1975 30.8544 37.666 31.3493C36.3121 32.6102 34.627 34.1795 35.4031 36.6829C35.7694 37.8651 35.7864 37.9928 35.1974 38.6335C35.1172 38.7209 35.0423 38.8006 34.9722 38.8751C34.4678 39.4122 34.0693 39.8363 33.7395 40.8754C33.6437 41.1772 33.5195 41.3169 33.2941 41.5707C33.1138 41.7737 32.8893 42.0266 32.6822 42.3809C32.4342 42.8055 32.3522 43.2144 32.2864 43.5428C32.2216 43.866 32.1848 44.0282 32.0579 44.184C31.7691 44.5386 31.2303 45.0535 30.6772 45.4049C30.1631 45.7313 29.863 45.7759 29.7607 45.7698C29.644 45.6447 29.2213 45.0968 28.5825 43.201C28.425 42.7334 28.2065 42.2521 27.9952 41.7867C27.5294 40.7608 27.0478 39.6998 27.2821 38.9748C27.3097 38.8893 27.3371 38.8057 27.364 38.724C27.7383 37.5832 28.0916 36.506 27.4371 34.9375C27.2378 34.4599 26.9205 34.1109 26.6408 33.8029C26.4598 33.6037 26.2547 33.378 26.2231 33.248C26.1846 33.0895 26.1858 32.9066 26.1872 32.6947C26.1909 32.1232 26.1966 31.2597 25.3382 30.4558C24.1278 29.3229 22.7164 29.6719 21.7824 29.9029C21.4955 29.9738 21.2244 30.0409 20.9843 30.0692C19.4478 30.2492 18.076 29.6695 17.2196 28.4777C16.3237 27.2312 16.1936 25.5537 16.8803 24.1001C17.2127 23.3967 17.7148 22.8316 18.2963 22.1775C18.4232 22.0346 18.5514 21.8904 18.6796 21.7428C18.8929 21.4969 19.1276 21.1639 19.3758 20.8114C19.6721 20.3909 20.2238 19.6078 20.4633 19.4588Z" fill="#F0CF69"/>
<path d="M44.8464 37.6555L44.3202 35.6721C44.2052 35.2389 43.8377 34.9198 43.3929 34.8666C42.9475 34.8146 42.5156 35.0372 42.3017 35.4311C42.1819 35.652 42.0739 35.8861 41.9696 36.1124C41.794 36.4931 41.6125 36.8869 41.4236 37.1042C41.3175 37.2263 41.0449 37.3579 40.7815 37.485C40.1519 37.7888 39.2895 38.205 38.96 39.2552C38.7555 39.9066 38.8318 40.422 38.8876 40.7983C38.9358 41.1245 38.947 41.2376 38.8596 41.4428L38.8487 41.4683C38.5005 42.2852 37.8528 43.8061 38.7611 45.099C39.4091 46.0217 40.0905 46.2589 40.62 46.2589C40.7234 46.2592 40.8211 46.2502 40.9116 46.2354C42.0272 46.0531 42.8659 44.8926 43.5512 42.583L44.8377 38.2473C44.8949 38.0545 44.898 37.8497 44.8464 37.6555ZM41.4544 41.9608C41.1051 43.1383 40.796 43.6881 40.6176 43.9317C40.597 43.9055 40.5747 43.8757 40.5509 43.8417C40.3419 43.544 40.6542 42.8108 40.861 42.3255L40.872 42.2999C41.2054 41.5174 41.1162 40.9165 41.0514 40.4777C41.0097 40.1967 40.9948 40.0759 41.047 39.91C41.0899 39.7736 41.3461 39.6413 41.7322 39.4549C41.9034 39.3722 42.0919 39.2813 42.2821 39.1713L41.4544 41.9608Z" fill="#F0CF69"/>
<path d="M29.5346 13.0004L29.4608 12.9746C28.8913 12.7751 28.2668 13.0747 28.0668 13.6446C27.8669 14.2147 28.1669 14.8387 28.7369 15.0386L28.8106 15.0644C28.9303 15.1064 29.0524 15.1264 29.1726 15.1264C29.6241 15.1264 30.0467 14.8445 30.2047 14.3944C30.4046 13.8244 30.1046 13.2003 29.5346 13.0004Z" fill="#F0CF69"/>
</g>
<defs>
<clipPath id="clip0_142_1739">
<rect width="56" height="56" fill="white"/>
</clipPath>
</defs>
</svg>
