<svg width="56" height="56" viewBox="0 0 56 56" fill="none" xmlns="http://www.w3.org/2000/svg">
<g clip-path="url(#clip0_142_1731)">
<path d="M43.75 56H12.25C9.35667 56 7 53.6457 7 50.75V26.25C7 23.3543 9.35667 21 12.25 21H43.75C46.6433 21 49 23.3543 49 26.25V50.75C49 53.6457 46.6433 56 43.75 56ZM12.25 24.5C11.2863 24.5 10.5 25.284 10.5 26.25V50.75C10.5 51.716 11.2863 52.5 12.25 52.5H43.75C44.7137 52.5 45.5 51.716 45.5 50.75V26.25C45.5 25.284 44.7137 24.5 43.75 24.5H12.25Z" fill="#F0CF69"/>
<path d="M40.25 24.5C39.284 24.5 38.5 23.716 38.5 22.75V14C38.5 8.211 33.789 3.5 28 3.5C22.211 3.5 17.5 8.211 17.5 14V22.75C17.5 23.716 16.716 24.5 15.75 24.5C14.784 24.5 14 23.716 14 22.75V14C14 6.279 20.279 0 28 0C35.721 0 42 6.279 42 14V22.75C42 23.716 41.216 24.5 40.25 24.5Z" fill="#F0CF69"/>
<path d="M28.0002 39.6666C25.4265 39.6666 23.3335 37.5736 23.3335 34.9999C23.3335 32.4263 25.4265 30.3333 28.0002 30.3333C30.5738 30.3333 32.6668 32.4263 32.6668 34.9999C32.6668 37.5736 30.5738 39.6666 28.0002 39.6666ZM28.0002 33.8333C27.3585 33.8333 26.8335 34.3559 26.8335 34.9999C26.8335 35.6439 27.3585 36.1666 28.0002 36.1666C28.6418 36.1666 29.1668 35.6439 29.1668 34.9999C29.1668 34.3559 28.6418 33.8333 28.0002 33.8333Z" fill="#F0CF69"/>
<path d="M28 46.6667C27.034 46.6667 26.25 45.8827 26.25 44.9167V38.5C26.25 37.534 27.034 36.75 28 36.75C28.966 36.75 29.75 37.534 29.75 38.5V44.9167C29.75 45.8827 28.966 46.6667 28 46.6667Z" fill="#F0CF69"/>
</g>
<defs>
<clipPath id="clip0_142_1731">
<rect width="56" height="56" fill="white"/>
</clipPath>
</defs>
</svg>
